<svg width="28" height="28" viewBox="0 0 28 28" fill="none" xmlns="http://www.w3.org/2000/svg">
<path d="M0.117112 13.8744C0.116268 16.3196 0.758093 18.7068 1.97812 20.8108L0 28L7.39123 26.0708C9.42775 27.1763 11.7204 27.759 14.0538 27.7599H14.0598C21.7436 27.7599 27.9991 21.5349 28.0023 13.8852C28.0036 10.1775 26.5544 6.69154 23.9223 4.06909C21.2897 1.44665 17.7894 0.00160027 14.0598 0C6.37437 0 0.120327 6.2243 0.117112 13.8744ZM4.51842 20.4483L4.24252 20.012C3.08233 18.1759 2.47 16.0538 2.47085 13.875C2.47338 7.51672 7.67176 2.34344 14.0639 2.34344C17.1594 2.34464 20.0686 3.54592 22.2569 5.72545C24.445 7.90515 25.649 10.8027 25.6481 13.884C25.6453 20.2427 20.4468 25.4164 14.0595 25.4164H14.055C11.9752 25.4152 9.93555 24.8595 8.15677 23.8087L7.73341 23.5589L3.34714 24.7037L4.51842 20.4483ZM14.0598 27.7599V27.7599Z" fill="black"/>
<path fill-rule="evenodd" clip-rule="evenodd" d="M10.5602 8.22754C10.3021 7.66524 10.0305 7.65398 9.78501 7.64409C9.58411 7.63572 9.35434 7.63626 9.12484 7.63626C8.89506 7.63626 8.52185 7.72077 8.20627 8.05865C7.89041 8.39654 7.00046 9.21332 7.00046 10.8745C7.00046 12.5358 8.23504 14.141 8.40704 14.3665C8.57934 14.5916 10.7903 18.1096 14.2914 19.4629C17.2015 20.5876 17.7937 20.3639 18.4253 20.3075C19.0569 20.2513 20.4635 19.491 20.7504 18.7026C21.0375 17.9142 21.0376 17.2385 20.9515 17.0974C20.8654 16.9566 20.6356 16.8721 20.2911 16.7034C19.9465 16.5345 18.253 15.7176 17.9373 15.6049C17.6214 15.4924 17.3917 15.4362 17.162 15.7742C16.9323 16.1118 16.2726 16.8721 16.0715 17.0974C15.8706 17.323 15.6696 17.3512 15.3251 17.1823C14.9805 17.0129 13.871 16.6567 12.5548 15.5066C11.5307 14.6116 10.8394 13.5064 10.6383 13.1684C10.4374 12.8307 10.6169 12.6479 10.7896 12.4795C10.9444 12.3282 11.1342 12.0853 11.3065 11.8882C11.4784 11.691 11.5357 11.5503 11.6505 11.3251C11.7655 11.0998 11.708 10.9026 11.6219 10.7337C11.5357 10.5648 10.8665 8.8952 10.5602 8.22754Z" fill="black"/>
</svg>
