<svg width="28" height="28" viewBox="0 0 28 28" fill="none" xmlns="http://www.w3.org/2000/svg">
<path d="M14.0013 0C10.1991 0 9.72194 0.0166253 8.22859 0.0845836C6.73815 0.152834 5.72081 0.388792 4.83063 0.735C3.90983 1.09258 3.12874 1.57092 2.35057 2.34938C1.57181 3.12754 1.09347 3.90862 0.734716 4.82912C0.387629 5.71958 0.151376 6.73721 0.0842924 8.22704C0.0175001 9.72038 0 10.1978 0 14C0 17.8022 0.0169171 18.2779 0.0845845 19.7712C0.153127 21.2616 0.389087 22.279 0.735008 23.1691C1.09289 24.0899 1.57122 24.871 2.34969 25.6492C3.12757 26.4279 3.90867 26.9074 4.82888 27.265C5.71964 27.6112 6.73728 27.8472 8.22742 27.9154C9.72077 27.9834 10.1976 28 13.9996 28C17.8021 28 18.2778 27.9834 19.7711 27.9154C21.2616 27.8472 22.2801 27.6112 23.1708 27.265C24.0913 26.9074 24.8713 26.4279 25.6491 25.6492C26.4279 24.871 26.9062 24.0899 27.265 23.1694C27.6092 22.279 27.8454 21.2613 27.9154 19.7715C27.9825 18.2782 28 17.8022 28 14C28 10.1978 27.9825 9.72067 27.9154 8.22733C27.8454 6.73692 27.6092 5.71958 27.265 4.82942C26.9062 3.90862 26.4279 3.12754 25.6491 2.34938C24.8704 1.57063 24.0916 1.09229 23.17 0.735C22.2774 0.388792 21.2595 0.152834 19.7691 0.0845836C18.2757 0.0166253 17.8003 0 13.9969 0H14.0013ZM12.7454 2.52292C13.1181 2.52233 13.5341 2.52292 14.0013 2.52292C17.7393 2.52292 18.1824 2.53633 19.6585 2.60342C21.0236 2.66583 21.7644 2.89392 22.2579 3.08554C22.9112 3.33929 23.377 3.64262 23.8667 4.13262C24.3568 4.62262 24.6601 5.08929 24.9144 5.74262C25.1061 6.23554 25.3344 6.97637 25.3966 8.34137C25.4636 9.81721 25.4782 10.2605 25.4782 13.9968C25.4782 17.733 25.4636 18.1764 25.3966 19.6522C25.3341 21.0172 25.1061 21.758 24.9144 22.251C24.6607 22.9043 24.3568 23.3695 23.8667 23.8592C23.3767 24.3492 22.9115 24.6525 22.2579 24.9063C21.765 25.0988 21.0236 25.3263 19.6585 25.3887C18.1827 25.4558 17.7393 25.4704 14.0013 25.4704C10.263 25.4704 9.81994 25.4558 8.34409 25.3887C6.97907 25.3257 6.23823 25.0976 5.74443 24.906C5.09109 24.6522 4.62442 24.3489 4.13442 23.8589C3.64441 23.3689 3.34108 22.9034 3.08674 22.2498C2.89511 21.7569 2.66674 21.016 2.60461 19.651C2.53753 18.1752 2.52411 17.7319 2.52411 13.9933C2.52411 10.2547 2.53753 9.81371 2.60461 8.33788C2.66703 6.97288 2.89511 6.23204 3.08674 5.73854C3.34049 5.08521 3.64441 4.61854 4.13442 4.12854C4.62442 3.63854 5.09109 3.33521 5.74443 3.08087C6.23794 2.88837 6.97907 2.66088 8.34409 2.59817C9.6356 2.53983 10.1361 2.52233 12.7454 2.51942V2.52292ZM21.4745 4.8475C20.547 4.8475 19.7945 5.59912 19.7945 6.52692C19.7945 7.45442 20.547 8.20692 21.4745 8.20692C22.402 8.20692 23.1545 7.45442 23.1545 6.52692C23.1545 5.59942 22.402 4.8475 21.4745 4.8475ZM14.0013 6.81042C10.0308 6.81042 6.81165 10.0295 6.81165 14C6.81165 17.9705 10.0308 21.1881 14.0013 21.1881C17.9718 21.1881 21.1898 17.9705 21.1898 14C21.1898 10.0295 17.9718 6.81042 14.0013 6.81042ZM14.0013 9.33333C16.5785 9.33333 18.668 11.4225 18.668 14C18.668 16.5772 16.5785 18.6667 14.0013 18.6667C11.4238 18.6667 9.3346 16.5772 9.3346 14C9.3346 11.4225 11.4238 9.33333 14.0013 9.33333Z" fill="black"/>
</svg>
