<svg width="125" height="71" viewBox="0 0 125 71" fill="none" xmlns="http://www.w3.org/2000/svg">
<path d="M124.26 62.8611C124.645 63.2578 124.634 63.8908 124.238 64.2751L117.774 70.5373C117.377 70.9216 116.744 70.9115 116.36 70.5148C115.975 70.1182 115.985 69.4851 116.382 69.1008L122.128 63.5344L116.562 57.7885C116.177 57.3918 116.187 56.7588 116.584 56.3745C116.981 55.9902 117.614 56.0003 117.998 56.3969L124.26 62.8611ZM1.04199 0.0568848L2.04037 0.113703C1.4796 9.96735 6.6973 25.1358 24.6397 38.0835C42.5874 51.035 73.2784 61.7589 123.558 62.557L123.542 63.5569L123.526 64.5568C73.0056 63.7548 41.8633 52.9788 23.4693 39.7053C5.07002 26.4279 -0.562279 10.6464 0.0436096 6.61351e-05L1.04199 0.0568848Z" fill="url(#paint0_linear_325_467)"/>
<defs>
<linearGradient id="paint0_linear_325_467" x1="0.541998" y1="7.55688" x2="123.542" y2="70.0569" gradientUnits="userSpaceOnUse">
<stop stop-color="#989898" stop-opacity="0"/>
<stop offset="1" stop-color="#1E1E1E"/>
</linearGradient>
</defs>
</svg>
