<svg width="140" height="39" viewBox="0 0 140 39" fill="none" xmlns="http://www.w3.org/2000/svg">
<path d="M0.786834 1.94428C0.247274 2.06215 -0.0945663 2.59511 0.0233099 3.13467L1.94421 11.9273C2.06209 12.4668 2.59505 12.8087 3.13461 12.6908C3.67417 12.5729 4.01601 12.04 3.89813 11.5004L2.19066 3.68476L10.0063 1.97729C10.5459 1.85941 10.8877 1.32645 10.7698 0.786894C10.652 0.247335 10.119 -0.0945035 9.57945 0.0233712L0.786834 1.94428ZM138.177 17.787L137.314 17.282C132.33 25.8009 119.593 35.5508 97.4832 36.4115C75.3672 37.2725 43.8674 29.2284 1.54016 2.0795L1.00027 2.92124L0.460376 3.76297C42.9906 31.0421 74.8951 39.2924 97.561 38.41C120.234 37.5274 133.656 27.4962 139.04 18.292L138.177 17.787Z" fill="url(#paint0_linear_325_498)"/>
<defs>
<linearGradient id="paint0_linear_325_498" x1="134.445" y1="24.3115" x2="-2.59543" y2="8.33612" gradientUnits="userSpaceOnUse">
<stop stop-color="#989898" stop-opacity="0"/>
<stop offset="1" stop-color="#1E1E1E"/>
</linearGradient>
</defs>
</svg>
