<svg width="125" height="71" viewBox="0 0 125 71" fill="none" xmlns="http://www.w3.org/2000/svg">
<path d="M0.28176 62.8611C-0.102517 63.2578 -0.0924684 63.8908 0.304205 64.2751L6.76837 70.5373C7.16504 70.9216 7.79813 70.9115 8.1824 70.5148C8.56668 70.1182 8.55663 69.4851 8.15996 69.1008L2.41404 63.5344L7.9804 57.7885C8.36467 57.3918 8.35463 56.7588 7.95795 56.3745C7.56128 55.9902 6.92819 56.0003 6.54392 56.3969L0.28176 62.8611ZM123.5 0.0568848L122.502 0.113703C123.062 9.96735 117.845 25.1358 99.9023 38.0835C81.9546 51.035 51.2636 61.7589 0.984129 62.557L1 63.5569L1.01587 64.5568C51.5364 63.7548 82.6787 52.9788 101.073 39.7053C119.472 26.4279 125.104 10.6464 124.498 6.61351e-05L123.5 0.0568848Z" fill="url(#paint0_linear_128_619)"/>
<defs>
<linearGradient id="paint0_linear_128_619" x1="124" y1="7.55688" x2="0.999999" y2="70.0569" gradientUnits="userSpaceOnUse">
<stop stop-color="#989898" stop-opacity="0"/>
<stop offset="1" stop-color="#1E1E1E"/>
</linearGradient>
</defs>
</svg>
