<svg width="24" height="24" viewBox="0 0 24 24" fill="none" xmlns="http://www.w3.org/2000/svg">
<g clip-path="url(#clip0_325_502)">
<path d="M23.8953 9.50535C23.7158 9.14841 23.3357 8.9314 22.943 8.96557L21.7491 9.05281C20.4542 4.37225 16.1677 0.920166 11.08 0.920166C4.97048 0.920089 0 5.89096 0 12C0 18.1096 4.97048 23.08 11.08 23.08C14.6164 23.08 17.9703 21.3691 20.0517 18.504C20.3711 18.0632 20.2729 17.4479 19.833 17.1276C19.3922 16.8078 18.7765 16.9072 18.457 17.3459C16.7449 19.7028 13.9872 21.1103 11.0795 21.1103C6.05594 21.1103 1.96955 17.0235 1.96955 12.0004C1.96955 6.97719 6.05602 2.89057 11.0796 2.89057C15.1254 2.89057 18.5599 5.5437 19.7445 9.19986L19.1229 9.24534C18.7259 9.274 18.385 9.54029 18.2599 9.91792C18.1343 10.2963 18.2497 10.7127 18.5506 10.9731L20.339 12.5175C20.5131 12.7978 20.8207 12.9852 21.1739 12.9852C21.1924 12.9852 21.2097 12.9811 21.2278 12.9802C21.2337 12.9802 21.2383 12.9828 21.2438 12.9828C21.2675 12.9828 21.2915 12.9824 21.3159 12.9802C21.5763 12.9608 21.8182 12.839 21.9893 12.6414L23.7596 10.5917C24.0209 10.2904 24.074 9.86097 23.8953 9.50535Z" fill="white"/>
<path d="M5.87061 15.4327V14.4761L6.74292 13.6877C8.21739 12.3687 8.93383 11.6102 8.95444 10.8213C8.95444 10.2705 8.62237 9.83477 7.84279 9.83477C7.26171 9.83477 6.75261 10.1247 6.39947 10.3956L5.95281 9.26291C6.46183 8.87986 7.25071 8.56763 8.16479 8.56763C9.69156 8.56763 10.5326 9.46055 10.5326 10.686C10.5326 11.8179 9.71263 12.7218 8.73618 13.5937L8.11295 14.1129V14.1331H10.6574V15.4319H5.87061V15.4327Z" fill="white"/>
<path d="M14.4311 15.4328V13.8226H11.4404V12.7952L13.995 8.68188H15.9268V12.6389H16.7367V13.8226H15.9268V15.4328H14.4311ZM14.4311 12.6389V11.1437C14.4311 10.7384 14.4518 10.3237 14.483 9.88712H14.4417C14.223 10.3237 14.0464 10.7181 13.8184 11.1437L12.915 12.6182V12.6389H14.4311Z" fill="white"/>
</g>
<defs>
<clipPath id="clip0_325_502">
<rect width="24" height="24" fill="white"/>
</clipPath>
</defs>
</svg>
