<svg width="21" height="24" viewBox="0 0 21 24" fill="none" xmlns="http://www.w3.org/2000/svg">
<path d="M17.0644 8.74599V6.93788C17.0644 3.11243 13.952 0 10.1262 0C6.30034 0 3.18791 3.11243 3.18791 6.93807V8.74619C1.31283 9.19309 0 10.8438 0 12.8066V19.8213C0 22.1269 1.90644 24 4.21177 24H16.1015C18.4071 24 20.252 22.1269 20.252 19.8213V12.8066C20.252 10.8435 18.9395 9.19289 17.0644 8.74599ZM10.8762 16.6812V19.3477C10.8762 19.4509 10.8601 19.4995 10.7564 19.4995H9.74954C9.64599 19.4995 9.56373 19.4478 9.56373 19.3446V16.6921C8.81374 16.4325 8.52148 15.8468 8.52148 15.1656C8.52148 14.2452 9.24806 13.4939 10.168 13.4966C10.9186 13.4987 11.7996 14.1084 11.7996 14.9827C11.7996 16.045 11.2513 16.4497 10.8762 16.6812ZM15.7516 8.62348H4.50074V6.96575C4.50074 3.86397 7.02459 1.34012 10.1262 1.34012C13.2282 1.34012 15.7516 3.86397 15.7516 6.96556V8.62348Z" fill="white"/>
</svg>
