<svg width="31" height="31" viewBox="0 0 31 31" fill="none" xmlns="http://www.w3.org/2000/svg">
<path d="M15.1667 29.3335C18.85 29.3335 22.1933 27.931 24.715 25.6218C24.5733 24.2901 23.7233 22.9868 22.2075 21.9668C18.3542 19.3885 12.0075 19.3885 8.12585 21.9668C6.61001 22.9868 5.76001 24.2901 5.61835 25.6218C8.14001 27.931 11.4833 29.3335 15.1667 29.3335ZM15.1667 29.3335C22.9906 29.3335 29.3333 22.9906 29.3333 15.1667C29.3333 7.34263 22.9906 1 15.1667 1C7.34263 1 1 7.34263 1 15.1667C1 22.9906 7.34263 29.3335 15.1667 29.3335ZM15.3367 16.2717C15.2375 16.2575 15.11 16.2575 14.9967 16.2717C12.5033 16.1867 10.52 14.1467 10.52 11.6391C10.52 9.07497 12.5883 6.99247 15.1667 6.99247C17.7308 6.99247 19.8133 9.07497 19.8133 11.6391C19.7992 14.1467 17.83 16.1867 15.3367 16.2717Z" stroke="white" stroke-width="2" stroke-linecap="round" stroke-linejoin="round"/>
</svg>
