<svg width="56" height="56" viewBox="0 0 56 56" fill="none" xmlns="http://www.w3.org/2000/svg">
<rect width="56" height="56" rx="8" fill="#165DFC"/>
<g clip-path="url(#clip0_325_489)">
<mask id="mask0_325_489" style="mask-type:luminance" maskUnits="userSpaceOnUse" x="11" y="11" width="35" height="34">
<path d="M45.5 11H11.5V45H45.5V11Z" fill="white"/>
</mask>
<g mask="url(#mask0_325_489)">
<path fill-rule="evenodd" clip-rule="evenodd" d="M26.2935 14.4627C25.7732 16.1567 24.7044 19.8622 24.1071 23.5128C25.6572 23.763 27.1713 23.923 28.5 23.923C29.8287 23.923 31.3428 23.763 32.8929 23.5128C32.2957 19.8622 31.2268 16.1567 30.7065 14.4627C29.9888 14.3467 29.2518 14.2863 28.5 14.2863C27.7482 14.2863 27.0112 14.3467 26.2935 14.4627ZM33.2227 15.121C33.7941 17.0988 34.5857 20.1067 35.0801 23.1088C37.2143 22.6691 39.228 22.1325 40.6904 21.7115C39.123 18.6798 36.4577 16.3077 33.2227 15.121ZM41.5516 23.7774C40.0064 24.2272 37.7683 24.8313 35.3841 25.3164C35.4835 26.2382 35.5421 27.144 35.5421 28C35.5421 29.2489 35.4172 30.6082 35.2214 31.9749C38.0752 31.3799 40.693 30.6194 42.0372 30.2065C42.1533 29.4888 42.2136 28.7518 42.2136 28C42.2136 26.5252 41.9813 25.1065 41.5516 23.7774ZM41.3791 32.7227C39.7152 33.2033 37.3244 33.8394 34.8231 34.3231C34.3394 36.8244 33.7033 39.2152 33.2227 40.8791C36.9969 39.4946 39.9946 36.4969 41.3791 32.7227ZM30.7066 41.5372C31.1194 40.193 31.8799 37.5752 32.4749 34.7214C31.1082 34.9172 29.7489 35.0421 28.5 35.0421C27.2511 35.0421 25.8918 34.9172 24.5252 34.7214C25.1201 37.5752 25.8806 40.193 26.2935 41.5372C27.0112 41.6533 27.7482 41.7136 28.5 41.7136C29.2518 41.7136 29.9888 41.6533 30.7066 41.5372ZM23.7772 40.8791C23.2967 39.2152 22.6606 36.8244 22.1768 34.3231C19.6756 33.8394 17.2847 33.2033 15.621 32.7227C17.0055 36.4969 20.0031 39.4946 23.7772 40.8791ZM14.9627 30.2065C16.307 30.6194 18.9248 31.3799 21.7786 31.9749C21.5828 30.6082 21.4578 29.2489 21.4578 28C21.4578 27.144 21.5165 26.2382 21.6158 25.3164C19.2317 24.8313 16.9935 24.2272 15.4484 23.7774C15.0188 25.1065 14.7863 26.5252 14.7863 28C14.7863 28.7518 14.8467 29.4888 14.9627 30.2065ZM16.3096 21.7115C17.772 22.1325 19.7856 22.6691 21.9199 23.1088C22.4142 20.1067 23.206 17.0988 23.7772 15.121C20.5423 16.3077 17.877 18.6798 16.3096 21.7115ZM23.8098 25.7175C23.7278 26.5187 23.6817 27.2871 23.6817 28C23.6817 29.3315 23.8423 30.8503 24.094 32.4061C25.6496 32.6577 27.1685 32.8184 28.5 32.8184C29.8315 32.8184 31.3503 32.6577 32.9061 32.4061C33.1577 30.8503 33.3184 29.3315 33.3184 28C33.3184 27.2871 33.2722 26.5187 33.1903 25.7175C31.5849 25.9746 29.966 26.1469 28.5 26.1469C27.034 26.1469 25.415 25.9746 23.8098 25.7175ZM25.203 12.4042C26.2678 12.1801 27.3708 12.0625 28.5 12.0625C29.6292 12.0625 30.7322 12.1801 31.797 12.4042C37.0153 13.5022 41.2898 17.1497 43.2617 21.9816C44.0201 23.84 44.4375 25.8726 44.4375 28C44.4375 29.1292 44.3199 30.2322 44.0958 31.297C42.8003 37.4543 37.9543 42.3003 31.797 43.5958C30.7322 43.8199 29.6292 43.9375 28.5 43.9375C27.3708 43.9375 26.2678 43.8199 25.203 43.5958C19.0458 42.3003 14.1998 37.4543 12.9042 31.297C12.6801 30.2322 12.5625 29.1292 12.5625 28C12.5625 25.871 12.9805 23.8369 13.7401 21.9773C15.7127 17.1475 19.9862 13.5019 25.203 12.4042Z" fill="white"/>
</g>
</g>
<defs>
<clipPath id="clip0_325_489">
<rect width="34" height="34" fill="white" transform="translate(11.5 11)"/>
</clipPath>
</defs>
</svg>
