<svg width="104" height="101" viewBox="0 0 104 101" fill="none" xmlns="http://www.w3.org/2000/svg">
<path d="M0.114792 95.3379C-0.142032 95.8268 0.0461322 96.4314 0.53507 96.6882L8.50276 100.873C8.9917 101.13 9.59626 100.942 9.85308 100.453C10.1099 99.9642 9.92174 99.3596 9.43281 99.1028L2.35041 95.3826L6.07059 88.3002C6.32741 87.8113 6.13925 87.2067 5.65031 86.9499C5.16137 86.6931 4.55681 86.8812 4.29999 87.3702L0.114792 95.3379ZM100.622 0.336153L99.6805 0.672199C102.997 9.96782 102.269 25.9921 88.7055 43.4738C75.1383 60.9608 48.7168 79.9041 0.702911 94.8481L1.00009 95.8029L1.29727 96.7577C49.5415 81.7421 76.3812 62.6215 90.2857 44.6998C104.194 26.7729 105.148 10.0436 101.564 0.000106322L100.622 0.336153Z" fill="url(#paint0_linear_325_474)"/>
<defs>
<linearGradient id="paint0_linear_325_474" x1="103.217" y1="7.39079" x2="2.83302" y2="102.039" gradientUnits="userSpaceOnUse">
<stop stop-color="#989898" stop-opacity="0"/>
<stop offset="1" stop-color="#1E1E1E"/>
</linearGradient>
</defs>
</svg>
