<svg width="29" height="20" viewBox="0 0 29 20" fill="none" xmlns="http://www.w3.org/2000/svg">
<path d="M28.5296 8.53119L28.5304 16.0729C28.5304 18.1614 26.9 19.8692 24.8425 19.9928L24.6033 20H3.92817C1.8396 20 0.131832 18.3696 0.00819522 16.3121L0.00102789 16.0729L0 8.53119H28.5296ZM23.1953 13.5369H19.6251L19.4798 13.5467C18.957 13.6176 18.5541 14.0657 18.5541 14.608C18.5541 15.1502 18.957 15.5983 19.4798 15.6692L19.6251 15.679H23.1953L23.3406 15.6692C23.8634 15.5983 24.2663 15.1502 24.2663 14.608C24.2663 14.0657 23.8634 13.6176 23.3406 13.5467L23.1953 13.5369ZM24.6033 0C26.6919 0 28.3996 1.63041 28.5233 3.68791L28.5304 3.92715L28.5296 6.38911H0L0.00102789 3.92715C0.00102789 1.83857 1.63144 0.130803 3.68894 0.00716698L3.92817 0H24.6033Z" fill="white"/>
</svg>
