<svg width="14" height="20" viewBox="0 0 14 20" fill="none" xmlns="http://www.w3.org/2000/svg">
<path d="M6.70823 19.8709C6.78342 19.9533 6.88929 20 6.99982 20C7.11043 20 7.21594 19.9533 7.29191 19.8709C7.93581 19.1701 9.20742 17.7198 10.4817 15.8844C12.087 13.5724 14 10.1824 14 7.16126C14 3.21236 10.8598 0 6.99982 0C3.14026 0 0 3.21236 0 7.16126C0 10.1845 1.91551 13.5767 3.52238 15.8904C4.79633 17.7256 6.06497 19.1716 6.70823 19.8709ZM6.99982 2.69461C9.35675 2.69461 11.274 4.65666 11.274 7.06784C11.274 9.47809 9.35668 11.4411 6.99982 11.4411C4.64332 11.4411 2.72577 9.47809 2.72577 7.06784C2.72591 4.65666 4.64325 2.69461 6.99982 2.69461Z" fill="#E26137"/>
</svg>
