<svg width="32" height="23" viewBox="0 0 32 23" fill="none" xmlns="http://www.w3.org/2000/svg">
<path fill-rule="evenodd" clip-rule="evenodd" d="M12.7815 15.3378V6.35888C15.969 7.85877 18.4377 9.30769 21.3575 10.8698C18.9493 12.2054 15.969 13.7039 12.7815 15.3378ZM30.5456 1.89325C29.9958 1.16884 29.0586 0.604942 28.0609 0.418254C25.1284 -0.138626 6.83358 -0.14021 3.90264 0.418254C3.10257 0.568238 2.39014 0.930771 1.77813 1.49404C-0.80058 3.88748 0.0074659 16.7227 0.629035 18.8018C0.890411 19.7018 1.2283 20.3508 1.65384 20.7768C2.20209 21.3401 2.95275 21.7279 3.81497 21.9018C6.22953 22.4013 18.6689 22.6805 28.0099 21.9768C28.8706 21.8269 29.6324 21.4265 30.2332 20.8393C32.6175 18.4555 32.4549 4.89941 30.5456 1.89325Z" fill="black"/>
</svg>
